<?xml version="1.0" encoding="utf-8"?>
<!-- Generator: Adobe Illustrator 24.1.0, SVG Export Plug-In . SVG Version: 6.00 Build 0)  -->
<svg version="1.1" xmlns="http://www.w3.org/2000/svg" x="0px" y="0px"
     viewBox="0 0 650 650" style="enable-background:new 0 0 650 650;" xml:space="preserve">
<style type="text/css">
	.st0{display:none;}
	.st1{display:inline;}
	.st2{display:inline;fill-rule:evenodd;clip-rule:evenodd;}
	.st3{display:inline;fill:#A91917;}
	.st4{display:inline;fill-rule:evenodd;clip-rule:evenodd;fill:#A91917;}
	.st5{fill-rule:evenodd;clip-rule:evenodd;fill:#FFC000;}
	.st6{fill-rule:evenodd;clip-rule:evenodd;fill:#FFFFFF;}
	.st7{fill:none;}
	.st8{fill-rule:evenodd;clip-rule:evenodd;}
	.st9{fill:#FFC000;}
	.st10{opacity:0.5;fill:#FFFFFF;}
	.st11{fill:#FFFFFF;}
	.st12{fill:#676767;}
	.st13{fill:url(#SVGID_1_);}
	.st14{fill:url(#SVGID_2_);}
	.st15{fill:url(#SVGID_3_);}
	.st16{fill:url(#SVGID_4_);}
	.st17{fill:url(#SVGID_5_);}
	.st18{fill:url(#SVGID_6_);}
	.st19{fill:url(#SVGID_7_);}
	.st20{fill:url(#SVGID_8_);}
	.st21{fill:url(#SVGID_9_);}
	.st22{fill:url(#SVGID_10_);}
	.st23{fill:url(#SVGID_11_);}
	.st24{fill:#333333;}
	.st25{fill:url(#SVGID_12_);}
	.st26{opacity:0.2;}
	.st27{fill:url(#SVGID_13_);}
	.st28{fill:url(#SVGID_14_);}
	.st29{fill:url(#SVGID_15_);}
	.st30{fill:url(#SVGID_16_);}
	.st31{fill:url(#SVGID_17_);}
	.st32{fill:url(#SVGID_18_);}
	.st33{fill:url(#SVGID_19_);}
	.st34{fill:url(#SVGID_20_);}
	.st35{fill:url(#SVGID_21_);}
	.st36{fill:url(#SVGID_22_);}
	.st37{fill:url(#SVGID_23_);}
	.st38{fill:url(#SVGID_24_);}
	.st39{fill:url(#SVGID_25_);}
	.st40{fill:url(#SVGID_26_);}
	.st41{fill:url(#SVGID_27_);}
	.st42{fill:url(#SVGID_28_);}
	.st43{fill:url(#SVGID_29_);}
	.st44{fill:url(#SVGID_30_);}
	.st45{fill:url(#SVGID_31_);}
	.st46{fill:url(#SVGID_32_);}
	.st47{fill:url(#SVGID_33_);}
	.st48{fill:url(#SVGID_34_);}
	.st49{fill:url(#SVGID_35_);}
	.st50{fill:url(#SVGID_36_);}
	.st51{fill:url(#SVGID_37_);}
	.st52{fill:url(#SVGID_38_);}
	.st53{fill:url(#SVGID_39_);}
	.st54{fill:url(#SVGID_40_);}
	.st55{fill:url(#SVGID_41_);}
	.st56{fill:url(#SVGID_42_);}
	.st57{fill:url(#SVGID_43_);}
	.st58{fill:url(#SVGID_44_);}
	.st59{fill:url(#SVGID_45_);}
	.st60{fill:url(#SVGID_46_);}
	.st61{fill:url(#SVGID_47_);}
	.st62{fill:url(#SVGID_48_);}
	.st63{clip-path:url(#SVGID_50_);}
	.st64{clip-path:url(#SVGID_52_);}
	.st65{clip-path:url(#SVGID_54_);}
</style>
    <g id="non-print-backgrounds" class="st0">
</g>
    <g id="Logos">
	<g>
		<path d="M325,589.7c-154.8,0-280.8-126-280.8-280.8S170.2,28,325,28s280.8,126,280.8,280.8S479.8,589.7,325,589.7z M325,51.8
			c-141.8,0-257.1,115.3-257.1,257.1S183.2,565.9,325,565.9s257.1-115.3,257.1-257.1S466.8,51.8,325,51.8z"/>
        <circle class="st5" cx="325.2" cy="307.9" r="259.2"/>
        <g>
			<path class="st6" d="M283.2,179.4c-3-18.4,6.8-36.9,23.8-44.7C310,153.1,300.2,171.5,283.2,179.4z"/>
            <path class="st6" d="M198.7,250.9c0,0,1.5-3.5-2-6.8c-15.2-14.4-48.8-48.3-29.6-58.1c21.3-10.9,79.6,4.7,144.2,38.7
				c-32.6,18.9-54.9,34.4-78.5,53.4C206.8,259.2,202.1,254.9,198.7,250.9z"/>
            <path class="st6" d="M454,362.1c-7.4,11-28.7,6.1-62.8-4.3c-1.6-0.5-3.1-0.4-4.5,0.2c10.4-15.1,12.7-43,9.1-63.4
				c0-0.1,0-0.2,0-0.3c0-0.1,0-0.1,0-0.2c-1.1-8-2.8-14.3-4.9-17.1C436.2,313.6,461.5,349.3,454,362.1z"/>
            <path class="st6" d="M418.1,278.7c-23-19.3-46.4-35-78.9-53.8c64.6-34,122.7-49.2,144.1-38.3c19.2,9.8-14.5,43.7-29.6,58.1
				c-2.7,2.5-2,3.7-2,6.8C448.2,255.3,444.2,259.6,418.1,278.7z"/>
            <path class="st6" d="M259.6,276.6c-2,2.8-3.8,9.1-4.9,17.1c0,0,0,0.1,0,0.2c0,0.1,0,0.2,0,0.3c-3.6,20.3-1.4,48.2,9.1,63.4
				c-1.4-0.6-3-0.6-4.5-0.2c-34.2,10.4-55.5,15.3-62.8,4.3C188.8,348.8,214.1,313.2,259.6,276.6z"/>
            <path d="M324.7,416.9c11.3-20.5,17.3-27.5,24.8-35.4h-49.6C307.4,389.4,313.3,396.4,324.7,416.9z"/>
            <path d="M267.7,335.3c2.7,9.1,7.1,17.7,12.9,25.1h88c5.9-7.4,10.2-16,12.9-25.1H267.7z"/>
            <path d="M380.6,283.9c-16.9-12.3-35.7-24.7-55.9-36.5c-20.3,11.8-39.1,24.2-55.9,36.5c-3.3,9.6-4.8,20-4.5,30.2h120.8
				C385.4,303.9,383.9,293.6,380.6,283.9z"/>
            <path class="st8" d="M453.6,244.6c-2.8,2.6-2.9,7-0.3,9.8l0.9,1.1c40-34.2,64.1-60.6,52.1-81.4c-13.2-18.4-68.8-9.7-137.1,21
				c3.5-6.9,5.2-14.6,5.2-22.2c0-2.8-0.2-5.6-0.7-8.4c-1.6-9.8-6.2-19.2-13.8-26.7c-4.1-4.1-8.8-7.4-13.8-9.7l0.2-0.5h0l5.2-11.4
				c0.8-1.8,0-4-1.8-4.8c-1.8-0.8-4,0-4.8,1.8l-5.7,12.3c-9.4-2.9-19.6-2.9-29.1,0l-5.7-12.3c-0.8-1.8-3-2.6-4.8-1.8
				c-1.8,0.8-2.6,3-1.8,4.8l5.1,11l0.4,0.9c-5,2.4-9.7,5.6-13.8,9.8c-9.9,9.9-14.7,23-14.5,36.1c0.1,7.1,1.7,14.1,4.8,20.6
				c-17.6-7.9-115.6-48.5-135.3-20.8c-17.9,25.2,37,69.2,51.7,81.8l0.9-1.1c2.6-2.8,2.4-7.2-0.3-9.8c-7.2-6.8-18.5-18-26.4-28.9
				c-10.4-14.3-10.6-22.8-5.6-27.5c15.6-14.6,73.5,4.7,91.4,11.6c17.2,6.6,35.8,15,55,25.1C219.6,278,157.3,341.5,172,367
				c9.2,16,47.6,13.9,96.9-3.5l-1.8-2.9c-1.7-2.8-4.9-4-8-3.1c-34.2,10.4-55.5,15.3-62.8,4.3C186,344,238.1,282.7,319.1,235.9
				l6.1-3.5c2,1.1,4.1,2.3,6.1,3.5c81,46.8,133.2,108.1,122.9,125.9c-7.4,11-28.7,6.1-62.8-4.3c-3.1-0.9-6.3,0.3-8,3.1l-1.8,2.9
				c49.3,17.4,87.7,19.5,96.9,3.5c14.7-25.5-47.6-89-139.3-142.2c64.6-34,122.7-49.2,144.1-38.3
				C502.4,196.2,468.7,230.2,453.6,244.6z M283.2,179.4c-3-18.4,6.8-36.9,23.8-44.7C310,153.1,300.2,171.5,283.2,179.4z
				 M365.8,179.4c-17-7.9-26.7-26.3-23.8-44.7C358.9,142.5,368.7,160.9,365.8,179.4z"/>
            <path class="st6" d="M365.8,179.4c-17-7.9-26.7-26.3-23.8-44.7C358.9,142.5,368.7,160.9,365.8,179.4z"/>
		</g>
        <g>
			<g>
				<g>
					<path d="M323.1,622c-42.2,0-84.1-7-113.6-14.2l0,0c-52.3-12.8-82.6-41.4-83.1-71.8c0-28,21.3-42.3,60.6-45.8
						c6.7-23.3,35.4-45.6,69.1-46.1c12.3-0.2,23.7,5.6,29.6,9.4c22.3-18.3,47.8-34.5,80.7-34.5c55.6,0,104,30.4,114.6,71.3
						c30,10.4,47.1,25.7,47.1,48.9c0,15.8-9.9,34.5-28.5,47.1c-14.4,9.6-43.6,20.1-62.7,24.2C406,617,369.4,622,323.1,622z"/>
				</g>
			</g>
            <g>
				<g>
					<path class="st11" d="M316.9,606.7c-46.8,0-90.1-9-106.5-12.9c-43.6-10.3-72-33.1-72.5-58.1c0-7.9,0-29.1,49.6-33.5l6.2-0.5
						l1.7-5.8c5.1-17.1,28.5-35.9,57.4-36.3l0.4,0c8.4,0,17.3,3.8,22.8,7.3l5.6,3.6l5.2-4.2c18.6-14.8,41.7-30,71.4-30
						c48.4,0,91.7,25.5,100.7,59.4l1.2,4.6l4.6,1.6c34.9,11.8,38.9,26.7,38.9,37c0,12.9-9.1,27.1-23.2,36.3
						c-12.8,8.3-39.7,17.6-56.8,21.1C388.8,603.4,354.9,606.7,316.9,606.7z"/>
				</g>
			</g>
		</g>
	</g>
</g>
</svg>
